<?xml version="1.0" standalone="no"?>
<!DOCTYPE svg PUBLIC "-//W3C//DTD SVG 20010904//EN"
 "http://www.w3.org/TR/2001/REC-SVG-20010904/DTD/svg10.dtd">
<svg version="1.0" xmlns="http://www.w3.org/2000/svg"
 width="640.000000pt" height="894.000000pt" viewBox="0 0 640.000000 894.000000"
 preserveAspectRatio="xMidYMid meet">

<g transform="translate(0.000000,894.000000) scale(0.100000,-0.100000)"
fill="#000000" stroke="none">
<path d="M1105 8928 c-4 -10 -4 -26 0 -35 8 -17 8 -17 12 0 3 9 3 25 0 35 -4
16 -4 16 -12 0z"/>
<path d="M3330 8902 c0 -29 -5 -39 -22 -47 -27 -12 -37 -45 -14 -45 8 0 26 11
40 24 20 18 26 33 26 65 0 30 -4 41 -15 41 -11 0 -15 -11 -15 -38z"/>
<path d="M3390 8932 c0 -10 33 -42 43 -42 4 0 7 11 7 25 0 20 -5 25 -25 25
-14 0 -25 -4 -25 -8z"/>
<path d="M3450 8900 c0 -45 19 -53 52 -23 17 15 18 15 18 0 0 -10 6 -17 14
-17 8 0 16 -4 18 -9 2 -4 31 -11 66 -14 48 -4 62 -2 62 9 0 10 10 8 38 -8 20
-12 40 -26 43 -31 4 -6 12 1 19 13 12 22 13 22 23 4 6 -10 11 -28 12 -38 2
-22 25 -35 25 -15 0 7 18 -5 40 -26 22 -21 40 -34 40 -27 0 17 40 15 46 -3 11
-27 34 -17 34 15 0 17 4 30 10 30 5 0 12 11 16 25 7 27 24 34 24 10 0 -9 9
-15 25 -15 14 0 28 7 31 15 4 8 18 15 32 15 14 0 34 7 44 17 17 15 19 15 38
-2 15 -14 20 -15 20 -4 1 10 4 9 14 -4 22 -29 37 -127 26 -172 -5 -22 -10 -55
-10 -72 0 -18 -5 -33 -10 -33 -7 0 -8 -42 -5 -120 6 -119 6 -120 -17 -120 -17
0 -19 3 -10 12 18 18 14 46 -8 60 -14 9 -20 24 -20 50 0 31 4 38 20 38 33 0
23 17 -20 34 -31 12 -40 21 -40 39 0 32 -33 61 -59 52 -15 -4 -21 -18 -26 -53
-18 -137 -41 -186 -60 -129 -8 21 -8 21 -12 -5 -2 -15 -23 -44 -49 -67 -35
-33 -44 -48 -44 -74 0 -25 -9 -42 -35 -67 -25 -25 -35 -43 -35 -65 0 -19 -8
-39 -20 -50 -29 -26 -26 -49 5 -41 19 5 28 1 42 -20 l17 -26 24 27 c22 26 27
27 78 21 44 -5 54 -3 54 9 0 8 7 15 15 15 9 0 18 12 22 30 3 17 12 30 19 30
19 0 18 -24 -1 -40 -15 -12 -22 -70 -8 -70 4 0 21 5 39 12 27 10 32 16 31 43
-1 30 30 75 52 75 5 0 11 8 13 18 3 11 26 29 52 41 43 21 46 25 46 61 0 22 5
40 13 43 7 2 8 8 3 13 -5 5 -11 4 -13 -3 -10 -29 -24 -10 -21 30 2 24 8 42 15
42 7 0 19 9 27 20 16 20 16 20 36 -5 11 -14 20 -31 20 -37 0 -7 7 -13 15 -13
19 0 20 -29 2 -36 -18 -7 21 -93 43 -94 8 0 -1 -16 -25 -40 l-39 -40 27 0 c25
0 27 -3 27 -40 0 -22 -4 -40 -9 -40 -5 0 -7 -9 -4 -20 5 -21 18 -26 27 -12 9
15 118 -3 131 -22 17 -23 7 -56 -16 -56 -13 0 -19 -7 -20 -22 -1 -18 -4 -15
-16 15 -9 20 -19 37 -24 37 -4 0 -13 -15 -19 -34 -6 -19 -16 -37 -23 -40 -7
-2 -5 -5 5 -5 24 -1 80 -61 74 -78 -3 -8 -2 -11 3 -8 5 3 15 21 21 40 15 44
25 44 40 0 6 -19 18 -35 26 -35 8 0 14 -6 14 -12 0 -7 5 -20 10 -28 9 -13 11
-13 20 0 14 22 12 40 -5 40 -8 0 -15 4 -15 8 0 9 33 42 42 42 3 0 9 -24 12
-52 4 -29 11 -80 15 -113 6 -45 5 -64 -5 -76 -8 -8 -14 -31 -14 -50 -1 -32 -2
-33 -15 -15 -18 24 -24 19 -32 -28 l-6 -36 41 0 41 0 -6 -37 c-3 -21 -10 -40
-14 -43 -14 -10 24 -80 43 -80 10 0 19 6 20 13 0 6 4 -10 7 -38 5 -42 3 -51
-11 -57 -24 -10 -23 -35 1 -48 11 -5 46 -11 78 -11 32 -1 67 -8 78 -15 18 -13
17 -14 -18 -14 -29 0 -45 -7 -68 -31 -23 -24 -28 -34 -18 -40 17 -10 -4 -59
-26 -59 -11 0 -15 -12 -15 -50 0 -47 1 -50 26 -50 l26 0 -7 -77 c-4 -43 -12
-81 -17 -84 -6 -4 -7 -12 -3 -18 4 -7 1 -19 -6 -27 -10 -12 -14 -12 -20 -2 -6
8 -9 0 -9 -23 0 -50 19 -73 58 -67 23 3 32 0 35 -11 2 -9 7 20 11 64 6 55 5
80 -3 83 -7 2 -11 41 -11 108 l0 104 40 0 40 0 0 -65 0 -65 -30 0 c-28 0 -30
-2 -30 -40 0 -32 4 -40 19 -40 16 0 19 -11 25 -70 4 -39 5 -79 1 -89 -3 -11
-1 -22 5 -26 5 -3 10 -22 10 -41 0 -32 2 -34 35 -34 23 0 44 8 58 21 12 11 32
25 45 30 15 6 22 17 22 34 0 22 4 25 33 25 17 0 42 -3 55 -6 18 -5 20 -9 11
-21 -10 -11 -9 -18 4 -31 16 -15 18 -15 34 1 16 15 16 18 -1 35 -16 19 -16 20
1 26 10 4 19 2 21 -3 2 -6 24 -11 49 -11 l46 0 -5 50 -5 50 38 2 c22 0 45 1
52 2 15 1 16 -46 0 -51 -6 -2 -13 4 -16 14 -3 10 -5 0 -6 -22 0 -22 3 -46 8
-54 9 -13 47 -12 82 3 13 6 17 -3 23 -56 3 -34 10 -66 15 -71 13 -13 30 0 41
29 6 14 18 24 30 24 13 0 20 7 20 19 0 10 9 30 21 44 15 21 19 34 13 62 -3 19
-12 35 -19 35 -8 0 -15 10 -17 23 -2 14 -11 23 -25 25 -13 2 -23 8 -23 13 0 5
-15 23 -32 39 l-33 29 29 1 c17 0 38 -9 50 -22 12 -13 32 -28 43 -35 25 -14
33 -2 33 52 0 38 24 65 42 47 9 -9 9 -12 0 -12 -19 0 -15 -77 4 -84 23 -9 24
-8 24 17 0 12 12 45 25 72 27 54 31 75 15 75 -18 0 -10 29 15 54 22 23 25 23
25 6 0 -10 -4 -22 -10 -25 -17 -11 -11 -35 9 -35 15 0 21 -10 26 -39 8 -47 43
-90 56 -69 13 19 11 28 -6 28 -16 0 -21 25 -6 35 5 3 12 -4 16 -15 12 -36 43
-24 55 21 l11 42 40 -39 c36 -35 38 -39 19 -42 -18 -3 -20 -10 -19 -58 2 -39
-3 -59 -15 -73 -10 -11 -15 -25 -11 -30 3 -6 -1 -25 -9 -43 -18 -34 -22 -118
-6 -118 6 0 10 -18 10 -40 0 -33 -3 -40 -19 -40 -18 0 -20 -7 -18 -92 1 -65
-4 -106 -15 -136 l-16 -44 29 -12 c22 -9 26 -15 17 -24 -7 -7 -22 -12 -35 -12
-13 0 -23 -6 -23 -12 0 -18 -62 -44 -138 -59 -62 -12 -71 -24 -22 -31 39 -5
32 -34 -8 -30 -22 2 -34 -2 -38 -13 -4 -9 -14 -15 -23 -14 -9 1 -29 1 -45 0
-23 -1 -27 -4 -18 -13 17 -17 15 -25 -8 -31 -13 -3 -20 0 -20 9 0 11 -9 13
-40 8 -35 -6 -40 -4 -40 12 0 16 -2 16 -16 -4 -19 -27 -12 -50 17 -61 30 -10
8 -24 -26 -15 -15 4 -25 13 -25 24 0 30 -20 34 -51 11 -15 -11 -36 -21 -45
-21 -12 0 -14 -4 -6 -12 17 -23 21 -82 6 -99 -11 -13 -12 -23 -4 -44 7 -20 8
-31 0 -39 -5 -5 -10 -22 -10 -36 0 -14 -5 -31 -12 -38 -9 -9 -9 -15 0 -24 9
-9 12 -9 12 0 0 21 28 13 32 -9 4 -26 20 -36 71 -44 35 -6 38 -9 33 -31 -4
-13 -2 -24 3 -24 6 0 8 -7 5 -15 -3 -8 -2 -20 2 -27 6 -9 11 -4 16 17 5 24 6
20 5 -17 l-2 -48 35 0 c35 0 36 0 32 39 -2 22 1 48 8 58 10 16 10 16 5 -3 -5
-18 1 -24 32 -37 28 -11 42 -12 55 -3 29 18 30 36 3 36 -33 0 -32 18 1 22 20
2 32 14 48 45 19 37 25 42 66 46 25 3 60 9 78 13 30 6 34 4 30 -12 -2 -11 -13
-23 -26 -29 -29 -13 -28 -43 3 -57 28 -13 33 -28 9 -28 -9 0 -14 -6 -11 -12 2
-7 14 -13 28 -13 14 0 28 -9 35 -22 6 -13 18 -31 27 -41 20 -22 22 -43 5 -60
-9 -9 -9 -12 0 -12 7 0 12 -16 12 -40 0 -29 -4 -40 -15 -40 -11 0 -15 -11 -15
-39 0 -22 7 -46 15 -55 17 -17 20 -46 5 -46 -13 0 -13 -49 1 -89 7 -20 18 -31
30 -31 13 0 21 -11 29 -40 11 -40 24 -51 33 -27 2 6 8 9 12 4 5 -4 3 -13 -3
-19 -7 -7 -12 -27 -12 -46 0 -27 4 -33 18 -30 10 2 16 11 14 21 -2 10 7 22 23
29 14 6 25 19 25 30 0 10 5 18 10 18 6 0 10 7 10 15 0 8 -4 15 -10 15 -5 0
-10 11 -10 25 0 18 -5 25 -20 25 -17 0 -20 7 -20 40 0 32 4 40 18 40 10 0 29
-11 42 -25 23 -24 23 -25 5 -45 -17 -19 -17 -20 0 -26 10 -4 26 -2 37 5 11 7
22 10 25 7 8 -7 -7 -46 -18 -46 -5 0 -9 -7 -9 -15 0 -8 -9 -15 -20 -15 -24 0
-24 1 -5 -44 14 -33 45 -51 45 -25 0 6 7 17 15 25 11 11 12 20 5 34 -13 23
-13 60 -1 60 23 0 41 -14 41 -31 0 -10 5 -19 11 -19 6 0 8 -7 5 -17 -6 -15 -4
-15 14 2 11 10 20 24 20 32 0 8 5 23 11 34 10 20 11 20 24 2 14 -17 14 -17 15
4 0 12 -7 23 -15 25 -13 3 -13 6 0 32 13 25 15 265 15 1957 l0 1929 -1475 0
-1475 0 0 -40z m730 -524 c0 -3 -4 -8 -10 -11 -5 -3 -10 -1 -10 4 0 6 5 11 10
11 6 0 10 -2 10 -4z m-5 -66 c3 -5 1 -10 -4 -10 -6 0 -11 5 -11 10 0 6 2 10 4
10 3 0 8 -4 11 -10z m-155 -20 c0 -5 -4 -10 -10 -10 -5 0 -10 5 -10 10 0 6 5
10 10 10 6 0 10 -4 10 -10z m-52 -27 c5 -17 -26 -29 -40 -15 -6 6 -7 15 -3 22
9 14 37 9 43 -7z m212 -56 c0 -37 -49 -39 -64 -2 -4 12 2 15 29 15 22 0 35 -5
35 -13z m460 -297 c0 -5 -5 -10 -11 -10 -5 0 -7 5 -4 10 3 6 8 10 11 10 2 0 4
-4 4 -10z m569 -697 c-1 -27 1 -60 5 -76 5 -16 4 -32 -2 -40 -10 -11 -15 -117
-6 -117 2 0 12 10 23 22 15 15 36 23 76 26 l55 4 0 -45 0 -46 35 15 c43 18 45
18 45 -3 0 -12 11 -6 40 22 27 26 40 34 40 23 0 -8 7 -21 15 -28 8 -7 15 -16
15 -21 0 -5 -7 -9 -15 -9 -8 0 -15 -4 -15 -10 0 -5 -15 -24 -33 -42 -19 -18
-37 -42 -41 -52 -11 -31 -28 -4 -34 53 -6 65 -22 66 -22 2 0 -76 -10 -111 -31
-111 -16 0 -19 8 -19 48 0 49 -17 89 -27 64 -2 -7 -11 -19 -19 -26 -8 -8 -14
-24 -14 -36 0 -15 -5 -20 -17 -18 -24 4 -43 45 -43 91 0 20 -4 37 -10 37 -5 0
-10 5 -10 11 0 7 -12 23 -27 37 -18 16 -23 27 -15 30 7 2 12 21 12 43 0 35 -3
39 -25 39 -22 0 -25 4 -25 40 0 22 5 40 11 40 6 0 24 13 40 29 16 16 29 34 29
40 0 6 3 11 6 11 3 0 5 -21 3 -47z m231 -209 c0 -11 -6 -14 -22 -8 -48 14 -54
23 -15 24 27 0 37 -4 37 -16z m656 -49 c4 -8 3 -23 -1 -32 -8 -17 -8 -17 -12
0 -3 9 -11 17 -19 17 -15 0 -19 12 -7 23 11 12 33 7 39 -8z m-500 -332 c-10
-10 -19 5 -10 18 6 11 8 11 12 0 2 -7 1 -15 -2 -18z m449 -443 c0 -13 -6 -25
-12 -27 -16 -6 -27 21 -19 43 9 23 31 11 31 -16z m-585 -530 c0 -5 -6 -10 -14
-10 -8 0 -18 5 -21 10 -3 6 3 10 14 10 12 0 21 -4 21 -10z m713 -150 c7 -1 24
-18 38 -39 23 -33 25 -40 13 -56 -12 -16 -12 -20 1 -28 17 -9 22 -117 5 -117
-5 0 -10 18 -10 40 0 29 -4 40 -15 40 -11 0 -15 -11 -15 -43 0 -30 -6 -47 -20
-60 -23 -19 -22 -21 -37 63 -9 46 -8 57 6 67 14 12 15 14 0 26 -11 9 -14 24
-11 56 3 28 0 46 -8 51 -9 6 -6 14 11 31 l24 24 3 -27 c2 -16 9 -28 15 -28z
m-93 -14 c0 -7 -6 -19 -14 -25 -12 -10 -17 -8 -25 8 -15 28 -14 31 14 31 15 0
25 -6 25 -14z m-22 -113 c-2 -10 -10 -18 -18 -18 -8 0 -16 8 -18 18 -2 12 3
17 18 17 15 0 20 -5 18 -17z m262 -13 c0 -11 -4 -20 -9 -20 -5 0 -7 9 -4 20 3
11 7 20 9 20 2 0 4 -9 4 -20z m-220 -166 c0 -8 -4 -14 -10 -14 -5 0 -10 9 -10
21 0 11 5 17 10 14 6 -3 10 -13 10 -21z m-50 -54 c0 -22 -4 -40 -10 -40 -5 0
-10 18 -10 40 0 22 5 40 10 40 6 0 10 -18 10 -40z m320 -45 c-6 -7 -20 -15
-30 -18 -25 -7 -27 23 -3 59 l16 26 14 -27 c11 -19 11 -30 3 -40z m-66 -50
c-3 -14 -10 -25 -14 -25 -14 0 -17 33 -6 58 8 19 11 20 18 8 5 -8 6 -27 2 -41z
m-60 9 c4 -9 4 -19 1 -22 -7 -8 -35 19 -29 29 8 14 21 11 28 -7z"/>
<path d="M977 8893 c-14 -13 -6 -33 13 -33 13 0 20 7 20 20 0 19 -20 27 -33
13z"/>
<path d="M1601 8874 c0 -11 3 -14 6 -6 3 7 2 16 -1 19 -3 4 -6 -2 -5 -13z"/>
<path d="M1120 8831 c0 -18 6 -31 16 -35 25 -9 28 -1 13 33 -17 39 -29 40 -29
2z"/>
<path d="M1315 8850 c3 -5 8 -10 11 -10 2 0 4 5 4 10 0 6 -5 10 -11 10 -5 0
-7 -4 -4 -10z"/>
<path d="M2786 8838 c4 -13 8 -49 8 -81 1 -39 5 -57 14 -57 7 0 12 13 12 34 0
18 3 54 6 80 7 45 6 46 -21 46 -24 0 -26 -3 -19 -22z"/>
<path d="M2737 8816 c-4 -15 -6 -31 -2 -34 10 -10 16 6 13 35 l-3 28 -8 -29z"/>
<path d="M2697 8803 c-12 -11 -8 -23 8 -23 8 0 15 7 15 15 0 16 -12 20 -23 8z"/>
<path d="M2866 8801 c-4 -7 -5 -15 -2 -18 9 -9 19 4 14 18 -4 11 -6 11 -12 0z"/>
<path d="M1155 8710 c-3 -5 -1 -10 4 -10 6 0 11 5 11 10 0 6 -2 10 -4 10 -3 0
-8 -4 -11 -10z"/>
<path d="M1087 8678 c-7 -26 -1 -38 19 -38 9 0 14 11 14 30 0 35 -25 41 -33 8z"/>
<path d="M3840 8595 c0 -23 18 -34 33 -19 7 7 -14 44 -25 44 -5 0 -8 -11 -8
-25z"/>
<path d="M3968 8568 c-20 -20 -21 -23 -5 -26 13 -3 17 -13 17 -43 0 -28 4 -39
15 -39 11 0 15 11 15 39 0 22 5 41 13 44 8 3 5 11 -10 26 l-23 21 -22 -22z"/>
<path d="M1140 8510 c0 -5 5 -10 10 -10 6 0 10 5 10 10 0 6 -4 10 -10 10 -5 0
-10 -4 -10 -10z"/>
<path d="M1130 8470 c-9 -6 -10 -10 -3 -10 6 0 13 -8 16 -17 4 -17 4 -17 12 0
10 23 -5 39 -25 27z"/>
<path d="M3525 8259 c-4 -6 1 -17 11 -24 18 -13 18 -14 2 -15 -10 0 -18 -4
-18 -10 0 -13 18 -12 55 4 28 12 29 13 8 20 -11 4 -24 13 -27 21 -6 18 -22 19
-31 4z"/>
<path d="M1108 8213 c6 -2 18 -2 25 0 6 3 1 5 -13 5 -14 0 -19 -2 -12 -5z"/>
<path d="M1228 8213 c6 -2 18 -2 25 0 6 3 1 5 -13 5 -14 0 -19 -2 -12 -5z"/>
<path d="M4266 8151 c-28 -19 -28 -19 -7 -30 27 -15 61 2 61 29 0 25 -17 25
-54 1z"/>
<path d="M1108 8143 c6 -2 18 -2 25 0 6 3 1 5 -13 5 -14 0 -19 -2 -12 -5z"/>
<path d="M1033 8125 c-27 -30 -10 -34 27 -5 23 18 23 20 5 19 -11 0 -26 -6
-32 -14z"/>
<path d="M1117 8088 c-7 -25 -1 -38 16 -38 7 0 6 4 -3 10 -11 7 -4 10 26 10
34 0 43 -4 47 -21 4 -13 12 -19 23 -17 27 5 27 23 -2 51 -35 36 -99 38 -107 5z"/>
<path d="M4065 7990 c-3 -5 -1 -10 4 -10 6 0 11 5 11 10 0 6 -2 10 -4 10 -3 0
-8 -4 -11 -10z"/>
<path d="M3870 7940 c0 -48 13 -52 31 -7 7 17 14 35 17 40 2 4 -8 7 -22 7 -24
0 -26 -4 -26 -40z"/>
<path d="M4430 7971 c0 -6 5 -13 10 -16 6 -3 10 1 10 9 0 9 -4 16 -10 16 -5 0
-10 -4 -10 -9z"/>
<path d="M3392 7195 c-22 -22 -42 -28 -177 -55 -158 -31 -317 -121 -429 -242
-87 -93 -133 -170 -166 -278 -38 -128 -135 -313 -182 -348 -10 -7 -18 -18 -18
-24 0 -6 -8 -17 -17 -25 -10 -8 -12 -12 -5 -8 24 12 11 -14 -28 -57 -22 -23
-40 -51 -40 -60 0 -9 -9 -19 -20 -23 -11 -3 -19 -9 -18 -13 1 -4 -7 -32 -19
-62 -21 -55 -21 -101 -1 -127 5 -7 7 -17 4 -22 -4 -5 -2 -12 3 -16 15 -9 87
-163 105 -225 21 -69 13 -183 -15 -219 -11 -13 -19 -29 -19 -36 0 -15 -143
-145 -159 -145 -20 0 -11 -49 13 -74 24 -24 25 -24 6 -41 -14 -12 -18 -25 -14
-41 4 -16 2 -24 -6 -24 -7 0 -10 -7 -6 -15 4 -10 -6 -17 -34 -25 -22 -6 -83
-40 -136 -75 -94 -63 -105 -67 -224 -81 -30 -3 -73 -14 -95 -23 -37 -17 -43
-25 -82 -119 -41 -96 -43 -107 -43 -198 0 -77 -5 -107 -24 -157 -49 -125 -64
-174 -77 -237 -6 -36 -20 -87 -30 -113 -11 -26 -19 -67 -19 -90 0 -64 -18
-113 -50 -140 -27 -23 -29 -30 -28 -84 2 -45 -5 -73 -28 -128 -31 -71 -33 -72
-103 -91 -13 -4 -12 -18 4 -71 6 -20 4 -23 -17 -23 -35 0 -68 -27 -68 -56 0
-14 7 -41 15 -61 30 -71 18 -105 -75 -210 -67 -76 -80 -112 -61 -183 17 -64
55 -116 101 -140 43 -22 60 -45 60 -84 0 -35 28 -104 58 -144 22 -31 24 -44
28 -165 1 -73 3 -152 3 -176 0 -47 32 -139 65 -183 11 -15 40 -35 65 -45 25
-9 53 -22 62 -30 18 -15 87 -17 123 -3 25 9 25 10 11 44 -18 42 -19 60 -3 50
7 -4 8 -3 4 5 -4 6 -11 9 -15 6 -4 -2 -14 15 -21 38 -7 23 -28 65 -46 92 -28
44 -47 94 -60 159 -7 36 24 146 50 181 66 86 169 87 238 3 18 -23 56 -65 85
-94 29 -28 50 -53 48 -55 -2 -2 11 -5 28 -5 l30 -1 -32 26 -33 27 7 69 c8 82
-19 235 -54 303 -37 73 -22 166 24 148 39 -15 115 44 102 79 -6 13 41 65 59
65 12 0 7 -432 -6 -522 -6 -37 -10 -102 -10 -146 0 -75 1 -80 31 -108 42 -39
94 -115 74 -108 -23 9 -18 -5 30 -81 24 -38 54 -88 66 -110 12 -22 31 -48 42
-58 20 -17 20 -19 4 -53 -10 -20 -17 -59 -17 -95 0 -38 -4 -58 -10 -54 -26 16
-63 114 -76 201 -15 102 -51 211 -65 197 -5 -5 -4 -24 1 -45 7 -24 7 -45 0
-63 -5 -14 -10 -39 -10 -55 0 -17 -7 -33 -17 -38 -14 -9 -14 -11 5 -21 13 -7
22 -21 22 -34 -1 -23 -33 -69 -47 -65 -4 1 -18 -3 -31 -10 -12 -7 -31 -10 -41
-7 -13 4 -24 -2 -35 -20 -9 -14 -25 -25 -36 -25 -29 0 -100 23 -100 33 0 4 -9
3 -20 -3 -28 -15 -63 -3 -83 28 -14 23 -17 24 -17 7 0 -11 35 -53 86 -102 71
-69 85 -88 80 -106 -28 -103 -67 -350 -77 -494 -6 -95 -15 -173 -20 -173 -4 0
-10 -8 -12 -18 -3 -9 -5 2 -6 26 0 23 4 42 9 42 6 0 10 12 9 28 l-1 27 -12
-29 c-9 -19 -15 -24 -18 -15 -3 8 -3 -8 0 -35 l5 -48 -27 17 c-14 10 -26 26
-26 36 0 11 -7 19 -15 19 -9 0 -18 7 -22 16 -5 14 -9 13 -25 -7 -18 -24 -18
-24 -34 -4 -8 11 -19 19 -24 18 -4 -1 -13 11 -19 27 -13 38 -29 38 -42 0 -6
-16 -15 -27 -20 -24 -5 3 -12 -2 -15 -10 -3 -9 -18 -16 -32 -16 -24 0 -24 -1
-8 -19 17 -19 17 -20 -3 -30 -11 -6 -38 -11 -60 -11 -23 0 -41 -4 -41 -10 0
-5 -6 -10 -13 -10 -8 0 -20 -18 -27 -39 -12 -38 -40 -64 -40 -39 0 9 -3 9 -11
1 -8 -8 -8 -17 0 -32 10 -18 9 -21 -7 -21 -23 0 -53 -30 -31 -30 9 -1 5 -9
-10 -21 -18 -15 -37 -19 -74 -18 -39 2 -53 -1 -64 -17 -13 -17 -12 -20 14 -25
15 -4 45 -7 66 -8 34 -1 37 -3 37 -30 0 -28 -3 -30 -42 -34 -41 -3 -41 -4 10
-5 28 -1 52 -6 52 -11 0 -18 -21 -66 -32 -72 -7 -5 -11 -52 -12 -127 -1 -104
-4 -123 -20 -141 -15 -16 -27 -20 -47 -16 -21 5 -30 2 -39 -14 -11 -22 -4 -26
48 -21 19 1 22 -3 22 -39 0 -30 -4 -41 -16 -41 -8 0 -12 -5 -9 -10 8 -13 43 5
67 34 l17 21 1 -23 c0 -22 4 -23 48 -21 49 3 54 -3 37 -44 -6 -15 1 -17 75
-17 l82 0 -4 35 c-2 22 0 34 6 32 6 -2 10 -18 8 -36 l-2 -31 2515 0 2515 0 0
1021 c-1 1018 -1 1022 -20 1004 -20 -18 -21 -18 -45 5 -20 19 -24 31 -22 70 2
30 11 57 25 75 12 15 22 41 22 57 0 25 3 28 20 23 20 -6 20 -2 20 219 0 184
-3 226 -14 226 -15 0 -26 68 -26 162 0 47 4 60 20 70 18 12 20 24 20 142 0
110 -3 131 -17 141 -9 7 -22 28 -28 46 -8 24 -23 39 -48 51 -34 17 -35 19 -24
47 6 17 8 33 5 36 -10 10 -48 -14 -48 -30 0 -8 -7 -15 -15 -15 -8 0 -15 5 -15
10 0 6 7 13 15 16 21 8 19 34 -2 34 -10 1 -40 12 -68 25 -44 21 -47 24 -22 24
17 1 27 6 27 16 0 9 7 18 15 21 10 4 15 20 15 45 0 38 -1 39 -34 39 -31 0 -36
-4 -47 -37 -14 -44 -40 -75 -47 -55 -2 6 -16 12 -32 12 l-29 0 26 46 c18 33
23 48 15 56 -8 8 -13 7 -18 -5 -3 -9 -17 -17 -30 -17 -23 0 -23 0 -9 -47 14
-46 9 -62 -17 -63 -22 0 -4 -21 22 -27 21 -4 32 -13 36 -29 9 -35 -3 -44 -57
-44 -46 0 -49 -2 -49 -25 0 -22 -4 -25 -40 -25 -22 0 -40 5 -40 10 0 6 -35 10
-85 10 -83 0 -85 0 -100 -30 -8 -16 -15 -36 -15 -45 0 -8 -9 -23 -20 -32 -11
-10 -20 -29 -20 -43 0 -14 -4 -30 -9 -35 -16 -17 -23 -55 -11 -55 20 0 40 -28
40 -54 0 -14 -4 -26 -10 -26 -5 0 -10 -8 -10 -18 0 -10 -18 -26 -45 -41 -45
-24 -51 -41 -15 -41 22 0 41 -51 22 -58 -7 -2 -12 -11 -12 -20 0 -9 -6 -28
-13 -42 -8 -14 -17 -41 -20 -59 -4 -19 -22 -49 -42 -68 -24 -24 -35 -43 -35
-63 0 -28 -2 -30 -40 -30 -22 0 -40 5 -40 10 0 6 -20 10 -44 10 -31 0 -46 5
-50 16 -3 8 -10 13 -15 9 -5 -3 -12 5 -14 17 -3 16 -5 13 -6 -11 -1 -30 1 -32
16 -20 15 12 16 12 9 -6 -5 -11 -9 -27 -11 -35 -1 -8 0 -9 2 -2 3 6 8 12 13
12 14 0 20 -29 9 -52 -8 -20 -9 -19 -4 7 4 22 3 26 -5 15 -5 -8 -9 -39 -8 -68
0 -29 -1 -55 -4 -57 -3 -3 -6 18 -7 47 -1 75 -20 162 -51 236 l-28 64 35 62
c46 80 46 105 0 146 -40 35 -45 56 -22 100 12 24 13 28 1 24 -20 -8 -26 38
-14 115 10 70 4 235 -12 304 -5 23 -10 101 -11 172 l-2 130 63 150 c34 83 73
173 86 200 12 28 31 73 42 100 11 28 34 79 51 115 18 36 46 101 63 145 17 44
37 85 45 91 7 6 11 19 7 28 -3 9 -2 16 4 16 6 0 13 -6 15 -12 4 -8 6 -7 6 4 1
20 -11 25 -55 20 -29 -4 -34 -8 -34 -31 0 -25 -59 -113 -142 -212 -82 -98
-144 -175 -161 -199 -80 -116 -113 -172 -134 -224 -22 -56 -22 -62 -7 -73 26
-19 10 -39 -67 -81 -63 -36 -80 -40 -138 -40 -36 0 -129 -5 -206 -11 -77 -6
-266 -18 -420 -26 -154 -9 -329 -20 -389 -25 -60 -6 -111 -8 -114 -5 -6 6 21
65 30 65 5 0 8 9 8 21 0 11 5 29 10 39 6 10 11 30 12 44 1 15 7 26 13 26 5 0
4 4 -3 9 -18 11 20 18 188 36 74 8 176 19 225 24 129 14 325 15 428 2 48 -7
92 -9 96 -7 5 3 11 25 15 48 4 24 8 52 10 63 8 53 39 182 47 197 5 10 9 27 9
39 0 29 26 119 62 214 49 129 50 133 25 146 -20 11 -121 116 -123 128 0 3 -6
19 -12 34 -16 37 -15 42 3 27 20 -16 19 -6 0 14 -9 8 -24 34 -34 56 -10 23
-22 42 -27 43 -5 1 -8 6 -6 10 8 25 -104 117 -166 138 -24 8 -30 14 -23 23 22
26 14 113 -18 213 -27 84 -31 114 -11 83 6 -9 10 -10 10 -3 0 6 -4 15 -10 18
-5 3 -10 25 -11 48 0 27 -3 36 -7 24 -5 -11 -12 5 -20 49 -7 36 -18 76 -24 88
-7 11 -12 23 -13 26 0 3 -17 23 -37 44 -21 22 -38 44 -38 49 0 6 -11 24 -24
41 -24 33 -56 90 -56 102 0 4 18 -11 40 -34 21 -23 46 -42 55 -42 8 0 15 -3
15 -7 0 -5 14 -16 30 -25 44 -25 37 -3 -8 26 -53 33 -128 112 -142 149 -7 18
-21 53 -31 79 -15 36 -18 66 -16 130 4 84 -21 282 -43 348 -7 19 -23 59 -36
88 -13 29 -24 57 -24 62 0 5 -6 15 -12 22 -7 7 -30 39 -50 70 -41 62 -198 228
-216 228 -6 0 -15 6 -19 13 -14 22 -94 69 -109 63 -8 -3 -12 -2 -9 4 3 5 -9
12 -27 15 -62 10 -73 12 -106 20 -19 4 -36 14 -39 21 -7 18 -13 16 -41 -11z
m185 -568 c12 -17 27 -60 34 -94 7 -39 17 -63 25 -63 7 0 28 -14 46 -30 40
-37 32 -45 -51 -55 -152 -17 -150 -17 -157 -39 -3 -11 -15 -41 -27 -65 -24
-52 -39 -194 -30 -292 l6 -67 -42 -43 c-22 -24 -41 -49 -41 -56 0 -7 30 -26
67 -43 39 -18 63 -34 57 -39 -11 -11 -78 -21 -174 -25 -41 -2 -104 -6 -140
-10 -36 -4 -78 -3 -93 1 l-28 8 38 45 c46 53 123 171 123 188 0 24 -21 10 -82
-54 -35 -36 -79 -76 -99 -89 -20 -13 -36 -29 -36 -37 -1 -7 -2 -24 -3 -38 -1
-14 7 -49 18 -78 l19 -53 13 31 c14 34 35 38 80 15 28 -15 30 -14 30 3 0 25
31 31 135 26 44 -2 97 -4 117 -4 20 0 39 -4 43 -10 4 -7 12 -7 24 0 22 11 31
4 31 -27 0 -27 -10 -32 -83 -43 l-52 -8 49 -1 50 -1 -29 -30 c-28 -29 -75 -41
-75 -19 0 7 -8 9 -22 4 -13 -4 -36 -6 -53 -6 l-30 2 35 -26 c18 -14 42 -25 51
-25 10 0 21 -4 24 -10 3 -5 22 -10 41 -10 19 0 49 -7 66 -16 17 -9 40 -13 54
-10 20 5 24 3 24 -15 0 -52 -158 -189 -217 -189 -13 0 -33 -5 -43 -10 -29 -15
-81 7 -190 80 -124 83 -245 206 -296 302 -39 73 -39 74 -38 183 1 125 16 171
78 239 44 48 123 78 170 65 78 -22 215 1 203 34 -2 7 3 17 12 24 12 8 16 27
15 75 l-2 64 35 -4 c33 -4 35 -3 28 19 -20 69 -29 80 -65 79 -45 -1 -103 13
-107 26 -5 14 55 102 102 149 38 38 58 48 165 75 25 6 56 15 70 20 14 4 43 8
65 9 34 1 43 -4 62 -32z m-439 -340 c2 -16 0 -36 -4 -45 -4 -10 -7 -20 -6 -23
2 -13 -34 -37 -58 -39 -59 -5 -59 -4 -44 47 22 74 40 95 77 91 27 -2 33 -8 35
-31z m574 -22 c-2 -11 -12 -29 -23 -41 -10 -11 -19 -29 -19 -40 0 -18 -7 -20
-75 -19 -52 0 -75 4 -75 12 0 28 24 61 63 87 33 21 52 26 87 24 39 -3 45 -6
42 -23z m-129 -152 c-7 -2 -21 -2 -30 0 -10 3 -4 5 12 5 17 0 24 -2 18 -5z
m-503 -13 c0 -11 -21 -11 -65 0 -27 7 -25 8 18 9 26 0 47 -3 47 -9z m784 -42
c8 -31 5 -45 -22 -101 -18 -36 -32 -68 -32 -71 0 -3 -20 -32 -45 -64 l-44 -57
13 -45 c26 -85 -4 -189 -80 -279 -25 -30 -54 -41 -54 -21 0 6 7 25 16 43 9 17
21 66 25 108 5 42 16 89 24 105 24 47 19 73 -27 118 -57 57 -106 156 -112 230
-6 57 -5 58 17 52 127 -33 224 -31 255 5 26 30 55 20 66 -23z m-1559 -147 c3
-5 1 -12 -5 -16 -5 -3 -10 1 -10 9 0 18 6 21 15 7z m432 -355 c-15 -80 -42
-135 -58 -119 -6 6 -6 20 1 37 5 15 10 60 10 99 0 46 4 67 9 58 8 -12 12 -11
27 4 25 25 27 9 11 -79z m150 -178 c-3 -8 -6 -5 -6 6 -1 11 2 17 5 13 3 -3 4
-12 1 -19z m33 -27 c0 -11 4 -22 9 -26 5 -3 22 -30 37 -60 16 -30 31 -55 35
-55 4 0 14 -3 22 -6 9 -3 16 3 20 17 5 18 11 21 36 16 34 -7 100 -46 147 -86
16 -15 44 -33 61 -40 17 -7 33 -21 36 -32 5 -19 12 -20 92 -23 79 -3 115 -72
76 -146 -19 -37 -28 -80 -17 -80 3 0 17 5 33 11 43 17 73 19 73 4 0 -7 -18
-71 -39 -141 -45 -147 -72 -255 -100 -400 -24 -127 -18 -166 35 -210 l37 -32
-59 -27 c-89 -42 -169 -103 -273 -209 -52 -53 -97 -96 -100 -96 -3 0 -24 21
-46 48 -70 84 -158 173 -222 225 -35 28 -63 56 -63 63 0 8 27 13 88 16 l88 3
45 42 44 43 -1 147 c-1 82 -7 175 -14 208 -6 33 -15 128 -19 210 -7 130 -12
159 -35 215 -55 130 -68 195 -60 305 3 55 8 103 11 108 8 14 23 7 23 -12z
m-336 -12 c-4 -8 0 -9 15 -4 33 10 25 -10 -16 -41 -21 -16 -45 -36 -55 -46
-22 -22 -98 -61 -106 -54 -3 3 0 6 6 6 7 0 12 6 12 13 0 26 50 80 90 98 22 10
40 23 40 29 0 5 5 10 11 10 5 0 7 -5 3 -11z m-149 -59 c3 -5 1 -10 -4 -10 -6
0 -11 5 -11 10 0 6 2 10 4 10 3 0 8 -4 11 -10z m35 0 c0 -5 -2 -10 -4 -10 -3
0 -8 5 -11 10 -3 6 -1 10 4 10 6 0 11 -4 11 -10z m1434 -56 c3 -8 2 -12 -4 -9
-6 3 -10 10 -10 16 0 14 7 11 14 -7z m687 -156 c28 -31 23 -35 -8 -7 -16 13
-30 25 -32 27 -2 1 2 2 9 2 7 0 21 -10 31 -22z m-123 -14 c46 -23 74 -44 58
-44 -14 0 -114 49 -120 59 -11 17 6 13 62 -15z m94 -35 c33 -41 52 -51 41 -21
-7 19 25 -20 45 -56 19 -34 1 -26 -43 19 -82 83 -100 99 -112 99 -6 0 -14 4
-18 10 -3 5 7 5 25 -2 17 -5 45 -28 62 -49z m179 -454 c5 -51 3 -73 -4 -66
-14 14 -20 81 -8 81 6 0 12 -7 12 -15z m-2104 -151 c-3 -3 -12 -4 -19 -1 -8 3
-5 6 6 6 11 1 17 -2 13 -5z m0 -20 c-3 -3 -12 -4 -19 -1 -8 3 -5 6 6 6 11 1
17 -2 13 -5z m7 -63 c3 -4 -6 -6 -19 -3 -14 2 -25 6 -25 8 0 8 39 4 44 -5z
m1593 -7 c-3 -3 -12 -4 -19 -1 -8 3 -5 6 6 6 11 1 17 -2 13 -5z m-1674 -11
c-7 -2 -19 -2 -25 0 -7 3 -2 5 12 5 14 0 19 -2 13 -5z m1674 -9 c-3 -3 -12 -4
-19 -1 -8 3 -5 6 6 6 11 1 17 -2 13 -5z m-370 -30 c-3 -3 -12 -4 -19 -1 -8 3
-5 6 6 6 11 1 17 -2 13 -5z m370 -10 c-3 -3 -12 -4 -19 -1 -8 3 -5 6 6 6 11 1
17 -2 13 -5z m-370 -10 c-3 -3 -12 -4 -19 -1 -8 3 -5 6 6 6 11 1 17 -2 13 -5z
m-110 -10 c-3 -3 -12 -4 -19 -1 -8 3 -5 6 6 6 11 1 17 -2 13 -5z m106 -11 c-7
-2 -21 -2 -30 0 -10 3 -4 5 12 5 17 0 24 -2 18 -5z m4 -19 c-3 -3 -12 -4 -19
-1 -8 3 -5 6 6 6 11 1 17 -2 13 -5z m-110 -10 c-3 -3 -12 -4 -19 -1 -8 3 -5 6
6 6 11 1 17 -2 13 -5z m106 -11 c-7 -2 -21 -2 -30 0 -10 3 -4 5 12 5 17 0 24
-2 18 -5z m324 -49 c-3 -3 -12 -4 -19 -1 -8 3 -5 6 6 6 11 1 17 -2 13 -5z
m-1634 -111 c-7 -2 -19 -2 -25 0 -7 3 -2 5 12 5 14 0 19 -2 13 -5z m40 -20
c-7 -2 -21 -2 -30 0 -10 3 -4 5 12 5 17 0 24 -2 18 -5z m-26 -39 c-3 -3 -12
-4 -19 -1 -8 3 -5 6 6 6 11 1 17 -2 13 -5z m20 -20 c-3 -3 -12 -4 -19 -1 -8 3
-5 6 6 6 11 1 17 -2 13 -5z m0 -20 c-3 -3 -12 -4 -19 -1 -8 3 -5 6 6 6 11 1
17 -2 13 -5z m0 -20 c-3 -3 -12 -4 -19 -1 -8 3 -5 6 6 6 11 1 17 -2 13 -5z
m-114 -51 c-7 -2 -19 -2 -25 0 -7 3 -2 5 12 5 14 0 19 -2 13 -5z m24 -19 c-3
-3 -12 -4 -19 -1 -8 3 -5 6 6 6 11 1 17 -2 13 -5z m-20 -210 c-3 -3 -12 -4
-19 -1 -8 3 -5 6 6 6 11 1 17 -2 13 -5z m3740 -308 c-5 -17 -81 -40 -103 -32
-18 7 -17 9 9 30 20 16 37 21 63 18 20 -3 33 -9 31 -16z m-1796 -282 l-20 -26
-7 28 c-6 22 -2 31 17 47 24 19 24 19 27 -2 2 -12 -6 -33 -17 -47z m-1598 39
c-7 -2 -19 -2 -25 0 -7 3 -2 5 12 5 14 0 19 -2 13 -5z m-6 -19 c-3 -3 -12 -4
-19 -1 -8 3 -5 6 6 6 11 1 17 -2 13 -5z m1293 -185 c-9 -17 -8 -24 9 -38 l21
-18 -25 0 c-14 0 -25 4 -25 9 0 5 -4 7 -9 3 -15 -9 -24 34 -11 50 7 8 21 15
32 15 16 0 17 -3 8 -21z m430 -108 c0 -5 -7 -12 -16 -15 -14 -5 -15 -4 -4 9
14 17 20 19 20 6z m-1663 -7 c-3 -3 -12 -4 -19 -1 -8 3 -5 6 6 6 11 1 17 -2
13 -5z m1389 -15 c8 -13 -13 -29 -38 -29 -17 0 -17 1 0 19 20 23 28 25 38 10z
m334 -36 c0 -15 -29 -17 -50 -3 -13 9 -13 11 0 20 11 7 11 10 2 10 -7 0 -10 5
-7 10 8 12 54 -20 55 -37z m-1687 -40 c-7 -2 -19 -2 -25 0 -7 3 -2 5 12 5 14
0 19 -2 13 -5z m-80 -40 c-7 -2 -21 -2 -30 0 -10 3 -4 5 12 5 17 0 24 -2 18
-5z m2187 -520 c-14 -9 -27 -19 -30 -23 -3 -3 -25 -18 -50 -34 -25 -16 -40
-24 -35 -18 18 19 120 91 130 92 5 0 -2 -8 -15 -17z m-2872 -35 c17 -46 8 -45
-16 1 -13 24 -16 38 -9 35 7 -2 18 -19 25 -36z m4222 -138 c0 -10 -5 -22 -10
-25 -13 -8 -24 20 -16 41 8 20 26 9 26 -16z m-1649 -17 c13 -16 12 -17 -3 -5
-9 7 -18 9 -20 5 -1 -4 -16 -15 -33 -24 -25 -13 -30 -21 -28 -50 1 -33 1 -33
-13 10 -7 25 -13 45 -11 46 1 1 22 9 47 17 25 9 46 16 46 17 1 0 8 -7 15 -16z
m-2599 -248 c8 -16 18 -59 22 -94 3 -35 11 -70 17 -77 6 -8 9 -23 6 -34 -3
-12 1 -23 10 -29 10 -5 18 -28 21 -60 4 -48 3 -51 -19 -51 l-23 0 22 -21 c12
-11 20 -25 16 -30 -9 -15 -27 4 -53 58 -13 26 -52 106 -87 176 -64 127 -75
159 -53 155 7 -2 16 11 20 27 5 17 19 35 31 40 25 11 41 -3 70 -60z m1038 47
c-8 -3 -24 -12 -35 -21 -14 -11 -13 -8 4 11 13 15 29 24 34 21 7 -4 6 -8 -3
-11z m45 -2 c-3 -5 -10 -10 -16 -10 -5 0 -9 5 -9 10 0 6 7 10 16 10 8 0 12 -4
9 -10z m-955 -41 c0 -18 -4 -28 -10 -24 -5 3 -10 20 -10 36 0 18 4 28 10 24 6
-3 10 -20 10 -36z m970 10 c0 -6 -4 -7 -10 -4 -5 3 -10 11 -10 16 0 6 5 7 10
4 6 -3 10 -11 10 -16z m-55 -87 c-3 -3 -16 5 -28 17 l-22 23 28 -17 c15 -10
25 -20 22 -23z m-1267 6 c10 -10 15 -10 22 2 7 10 10 11 10 3 0 -7 6 -13 13
-13 21 0 78 -76 71 -94 -3 -9 -2 -16 2 -16 5 0 9 -11 9 -23 0 -19 -4 -23 -20
-19 -18 5 -18 3 -6 -11 7 -9 24 -17 36 -17 19 0 24 -7 29 -37 3 -21 6 -46 7
-55 0 -10 4 -20 10 -23 5 -4 9 -30 9 -59 0 -28 5 -57 11 -63 7 -7 7 -23 -1
-52 -18 -68 -40 -51 -72 54 -32 104 -53 156 -84 205 -13 19 -28 55 -34 80 -7
25 -15 50 -20 55 -11 15 -22 95 -12 95 4 0 14 -6 20 -12z m2796 -23 c5 -22 4
-26 -4 -15 -5 8 -10 24 -10 34 0 26 6 18 14 -19z m-2967 -772 c-3 -10 -5 -2
-5 17 0 19 2 27 5 18 2 -10 2 -26 0 -35z m-37 8 c0 -21 -13 -41 -26 -41 -17 0
-17 5 -2 30 13 21 28 27 28 11z m28 -43 c4 -4 5 -33 2 -65 l-5 -58 -6 65 -6
65 -1 -84 c-2 -92 -12 -107 -13 -20 -1 67 14 165 19 129 2 -14 7 -28 10 -32z
m-121 -70 c-3 -8 -6 -5 -6 6 -1 11 2 17 5 13 3 -3 4 -12 1 -19z m-207 -22 c0
-7 -7 -19 -15 -26 -13 -11 -15 -8 -15 14 0 16 5 26 15 26 8 0 15 -6 15 -14z
m327 -128 c-2 -13 -4 -3 -4 22 0 25 2 35 4 23 2 -13 2 -33 0 -45z m-17 2 c0
-11 -7 -20 -15 -20 -13 0 -14 4 -5 20 6 11 13 20 15 20 3 0 5 -9 5 -20z m-316
-36 c18 -7 12 -24 -10 -24 -8 0 -14 7 -14 15 0 17 2 18 24 9z m336 -31 c0 -22
-2 -25 -10 -13 -13 20 -13 40 0 40 6 0 10 -12 10 -27z m-470 7 c0 -5 -4 -10
-10 -10 -5 0 -10 5 -10 10 0 6 5 10 10 10 6 0 10 -4 10 -10z m130 -33 c9 -3 4
-6 -12 -6 -26 -1 -28 -4 -28 -41 0 -29 -4 -40 -15 -40 -11 0 -15 11 -15 40 0
28 4 40 14 40 8 0 17 8 20 17 5 11 10 13 14 7 4 -6 14 -14 22 -17z m-240 -21
c0 -8 -4 -18 -10 -21 -5 -3 -10 3 -10 14 0 12 5 21 10 21 6 0 10 -6 10 -14z
m557 -83 c-2 -21 -4 -6 -4 32 0 39 2 55 4 38 2 -18 2 -50 0 -70z m-447 27 c0
-5 -7 -10 -15 -10 -11 0 -15 -11 -15 -40 0 -22 -4 -40 -10 -40 -5 0 -10 7 -10
15 0 8 -5 24 -12 34 -9 15 -9 23 1 35 15 18 61 22 61 6z m138 -22 c9 -9 18 -9
38 1 28 12 43 3 44 -25 0 -15 -34 -24 -51 -13 -8 5 -42 6 -76 2 -59 -5 -63 -4
-63 15 0 17 7 22 43 25 23 2 44 4 48 5 3 1 10 -3 17 -10z m-248 -54 c0 -8 -4
-14 -10 -14 -5 0 -10 9 -10 21 0 11 5 17 10 14 6 -3 10 -13 10 -21z m250 -10
c0 -2 -7 -4 -15 -4 -8 0 -15 4 -15 10 0 5 7 7 15 4 8 -4 15 -8 15 -10z m-30
-33 c0 -22 -37 -38 -52 -23 -6 6 -2 15 13 26 30 21 39 20 39 -3z m-105 -21 c3
-5 -3 -10 -15 -10 -12 0 -18 5 -15 10 3 6 10 10 15 10 5 0 12 -4 15 -10z m135
-44 c0 -8 -7 -16 -15 -20 -10 -4 -15 1 -15 14 0 11 7 20 15 20 8 0 15 -6 15
-14z"/>
<path d="M3236 5887 c-17 -12 -17 -14 0 -28 13 -11 18 -11 21 -1 3 6 17 12 31
12 26 1 26 1 8 15 -24 18 -37 19 -60 2z"/>
<path d="M2076 1541 c-4 -5 -2 -20 3 -33 8 -21 9 -20 9 10 -1 34 -3 38 -12 23z"/>
<path d="M1950 1446 c0 -22 17 -28 24 -10 9 22 8 24 -9 24 -8 0 -15 -6 -15
-14z"/>
<path d="M3825 7020 c3 -5 8 -10 11 -10 2 0 4 5 4 10 0 6 -5 10 -11 10 -5 0
-7 -4 -4 -10z"/>
<path d="M5481 6561 c-10 -10 -25 -21 -32 -24 -8 -3 5 -6 29 -6 38 -1 42 1 42
24 0 30 -13 32 -39 6z"/>
<path d="M5715 6283 c0 -21 5 -29 23 -31 18 -3 22 1 22 22 0 14 -4 26 -9 26
-5 0 -16 2 -23 5 -10 4 -14 -3 -13 -22z"/>
<path d="M2350 6195 c-7 -8 -8 -15 -2 -15 5 0 15 7 22 15 7 8 8 15 2 15 -5 0
-15 -7 -22 -15z"/>
<path d="M4280 5850 c12 -16 26 -30 33 -30 6 0 1 9 -11 20 -12 12 -22 25 -22
30 0 6 -5 10 -11 10 -6 0 -1 -13 11 -30z"/>
<path d="M5800 5559 c0 -25 33 -22 38 4 2 12 -3 17 -17 17 -15 0 -21 -6 -21
-21z"/>
<path d="M4430 5420 c0 -5 5 -10 10 -10 6 0 10 5 10 10 0 6 -4 10 -10 10 -5 0
-10 -4 -10 -10z"/>
<path d="M5670 5325 c0 -9 6 -12 15 -9 8 4 15 10 15 15 0 5 -7 9 -15 9 -8 0
-15 -7 -15 -15z"/>
<path d="M5630 5275 c0 -8 7 -15 15 -15 8 0 15 7 15 15 0 8 -7 15 -15 15 -8 0
-15 -7 -15 -15z"/>
<path d="M5663 4994 c-2 -7 -2 -17 1 -22 8 -13 56 -2 56 13 0 18 -50 26 -57 9z"/>
<path d="M5819 4900 c-7 -22 -15 -40 -19 -40 -4 0 -19 -26 -35 -57 -35 -73
-45 -86 -59 -75 -21 17 -64 22 -69 9 -2 -7 -2 -36 1 -65 4 -42 8 -52 23 -52
11 0 19 5 19 12 0 9 3 9 12 0 10 -10 10 -17 0 -32 -6 -11 -12 -29 -12 -40 0
-12 -7 -20 -16 -20 -14 0 -15 -16 -12 -123 5 -125 14 -170 29 -131 6 16 10 13
25 -21 l18 -40 109 2 c60 1 114 6 119 11 5 5 15 31 22 57 8 33 18 50 31 53 29
7 118 3 127 -6 7 -7 1 -32 -33 -164 -5 -21 -16 -38 -24 -38 -7 0 -24 -18 -36
-40 -13 -22 -26 -40 -30 -40 -4 0 -9 19 -11 43 -3 39 -6 44 -50 66 -27 13 -48
29 -48 37 0 8 -6 14 -14 14 -9 0 -17 -15 -21 -40 -4 -22 -11 -40 -16 -40 -5 0
-9 -9 -9 -20 0 -17 7 -20 40 -20 33 0 40 -3 40 -20 0 -12 -7 -20 -16 -20 -32
0 0 -213 38 -254 17 -19 18 -19 29 12 6 18 15 32 20 32 5 0 9 7 9 15 0 8 8 15
19 15 10 0 33 5 51 11 30 11 32 14 26 50 -5 29 -3 39 7 39 14 0 43 66 39 88
-2 6 2 12 8 12 5 0 10 -9 10 -20 0 -11 5 -20 11 -20 6 0 9 6 6 13 -2 6 2 19
10 28 8 9 16 30 17 45 4 36 30 38 34 4 2 -14 8 -29 13 -35 5 -5 9 -22 9 -37 0
-16 7 -39 15 -52 14 -21 13 -27 -10 -72 -28 -56 -34 -114 -10 -114 11 0 15 11
15 40 0 37 2 40 28 40 22 0 31 8 51 45 22 41 25 43 37 28 11 -15 13 49 14 395
0 352 -2 412 -14 412 -10 0 -16 14 -19 43 l-4 42 -1 -42 c-2 -37 -5 -43 -24
-43 -13 0 -32 -7 -42 -15 -24 -18 -82 -20 -93 -2 -4 6 -6 20 -5 30 4 21 -27
35 -38 17 -6 -10 -17 -11 -49 -3 -36 10 -41 9 -46 -8 -9 -26 -40 -24 -53 4
l-11 22 0 -22 c-1 -25 -11 -29 -29 -11 -8 8 -15 8 -28 -3 -15 -12 -18 -11 -28
5 -6 11 -19 28 -29 39 -15 15 -18 28 -12 63 6 42 5 44 -19 44 -21 0 -27 -7
-37 -40z m17 -197 c-11 -11 -19 6 -11 24 8 17 8 17 12 0 3 -10 2 -21 -1 -24z
m530 -97 c0 -25 -4 -40 -16 -46 -18 -10 -60 -3 -60 11 0 21 21 59 30 54 6 -3
13 1 16 10 11 27 28 10 30 -29z m-38 -97 c-6 -19 -16 -29 -26 -27 -24 5 -26
29 -3 35 12 3 21 9 21 14 0 5 4 9 9 9 6 0 6 -12 -1 -31z m-133 -199 c11 17 31
11 45 -15 11 -20 10 -28 -4 -50 -10 -15 -26 -25 -40 -25 -14 0 -27 -6 -29 -12
-3 -7 -6 -1 -6 15 -1 15 4 36 11 47 7 10 9 23 5 27 -5 4 -12 1 -17 -7 -11 -17
-13 -9 -4 14 5 12 10 14 19 6 9 -8 15 -8 20 0z m-256 -314 c9 -10 8 -15 -4
-20 -10 -4 -15 1 -15 14 0 24 4 25 19 6z"/>
<path d="M6385 4870 c-3 -5 -1 -10 4 -10 6 0 11 5 11 10 0 6 -2 10 -4 10 -3 0
-8 -4 -11 -10z"/>
<path d="M5975 4850 c4 -6 11 -8 16 -5 14 9 11 15 -7 15 -8 0 -12 -5 -9 -10z"/>
<path d="M5665 4790 c-3 -5 -1 -10 4 -10 6 0 11 5 11 10 0 6 -2 10 -4 10 -3 0
-8 -4 -11 -10z"/>
<path d="M5221 4661 c-11 -21 -17 -41 -14 -45 4 -3 1 -6 -5 -6 -7 0 -12 -8
-12 -17 0 -11 13 2 31 30 18 26 34 46 36 43 9 -9 -49 -115 -122 -221 -41 -60
-92 -136 -112 -169 -21 -32 -48 -71 -60 -86 -20 -24 -23 -39 -23 -118 0 -92
13 -128 25 -72 4 17 18 59 32 93 14 34 38 97 54 140 28 76 105 223 159 302 60
87 70 111 57 139 -16 35 -23 33 -46 -13z"/>
<path d="M4860 4637 c0 -7 -16 -52 -35 -100 -39 -95 -75 -239 -74 -290 l0 -32
14 30 c7 17 20 68 29 115 9 47 32 127 51 178 38 99 40 112 25 112 -5 0 -10 -6
-10 -13z"/>
<path d="M5239 4495 c-13 -27 -33 -60 -44 -73 -12 -12 -29 -37 -39 -55 -16
-27 -10 -23 38 23 55 53 81 103 74 137 -3 12 -12 2 -29 -32z"/>
<path d="M5773 4205 c-7 -8 -13 -21 -13 -29 0 -8 6 -17 13 -19 9 -4 9 -8 0
-14 -6 -4 -13 -21 -15 -38 -2 -19 -11 -34 -26 -41 -18 -9 -20 -13 -9 -22 9 -8
24 -8 50 -1 38 10 46 26 25 47 -9 9 -9 12 2 12 11 0 11 3 2 12 -15 15 -15 28
-1 28 14 0 39 26 39 40 0 16 -26 40 -42 40 -7 -1 -19 -7 -25 -15z"/>
<path d="M5711 3961 c-8 -13 -9 -27 -3 -38 7 -11 3 -32 -11 -65 l-20 -49 21
-22 22 -21 21 21 c21 21 21 22 5 64 -10 25 -14 53 -11 70 4 16 2 36 -3 45 -9
16 -11 15 -21 -5z"/>
<path d="M15 3921 c-20 -40 -19 -43 10 -29 14 6 25 19 25 29 0 31 -19 31 -35
0z"/>
<path d="M6160 3921 c0 -12 5 -21 10 -21 6 0 10 6 10 14 0 8 -4 18 -10 21 -5
3 -10 -3 -10 -14z"/>
<path d="M72 3888 c-15 -15 -16 -38 -2 -38 6 0 10 7 10 15 0 8 6 15 14 15 8 0
18 5 21 10 9 14 -29 12 -43 -2z"/>
<path d="M4342 3870 c-18 -4 -36 -10 -39 -14 -9 -8 17 -7 132 8 l100 14 -80 0
c-44 0 -95 -4 -113 -8z"/>
<path d="M6377 3830 c-7 -18 -21 -33 -34 -36 -21 -6 -23 -12 -23 -70 0 -60 2
-64 23 -64 l22 0 -21 -18 c-12 -9 -25 -27 -29 -39 -3 -13 -13 -23 -20 -23 -8
0 -19 -9 -26 -21 -17 -33 2 -43 44 -23 30 14 34 20 25 32 -10 11 -8 17 7 28
10 8 27 14 37 14 31 0 24 67 -9 98 l-28 25 28 10 c25 8 27 13 27 63 0 61 -7
68 -23 24z"/>
<path d="M4233 3843 c9 -2 25 -2 35 0 9 3 1 5 -18 5 -19 0 -27 -2 -17 -5z"/>
<path d="M6054 3835 c25 -19 37 -19 30 0 -4 8 -16 15 -28 15 -21 -1 -21 -1 -2
-15z"/>
<path d="M60 3802 c-33 -15 -60 -37 -60 -49 0 -19 14 -16 35 7 10 11 24 20 32
20 7 0 13 7 13 15 0 8 -1 15 -2 14 -2 0 -10 -3 -18 -7z"/>
<path d="M5976 3725 c4 -8 10 -15 15 -15 5 0 9 7 9 15 0 8 -7 15 -15 15 -9 0
-12 -6 -9 -15z"/>
<path d="M6000 3675 c0 -8 7 -15 15 -15 9 0 12 6 9 15 -4 8 -10 15 -15 15 -5
0 -9 -7 -9 -15z"/>
<path d="M5920 3635 c0 -27 9 -32 28 -13 18 18 14 38 -8 38 -15 0 -20 -7 -20
-25z"/>
<path d="M6200 3647 c0 -21 11 -27 31 -16 27 14 23 29 -6 29 -14 0 -25 -6 -25
-13z"/>
<path d="M6240 3460 c0 -22 8 -25 30 -10 13 9 13 11 0 20 -22 15 -30 12 -30
-10z"/>
<path d="M6320 3460 c0 -5 7 -10 16 -10 8 0 12 5 9 10 -3 6 -10 10 -16 10 -5
0 -9 -4 -9 -10z"/>
<path d="M5195 3000 c3 -5 8 -10 11 -10 2 0 4 5 4 10 0 6 -5 10 -11 10 -5 0
-7 -4 -4 -10z"/>
<path d="M5272 2650 c0 -14 2 -19 5 -12 2 6 2 18 0 25 -3 6 -5 1 -5 -13z"/>
<path d="M1507 2150 c-3 -10 1 -24 7 -29 10 -8 11 -3 8 19 -5 35 -8 37 -15 10z"/>
<path d="M1287 1923 c-4 -3 -7 -11 -7 -17 0 -6 5 -5 12 2 6 6 9 14 7 17 -3 3
-9 2 -12 -2z"/>
<path d="M1316 1913 c-6 -14 -5 -15 5 -6 7 7 10 15 7 18 -3 3 -9 -2 -12 -12z"/>
<path d="M1610 1869 c0 -3 5 -20 11 -38 12 -35 34 -43 24 -8 -7 20 -35 58 -35
46z"/>
<path d="M1699 1123 c-1 -32 -3 -49 -6 -38 -2 11 -6 30 -9 43 -4 18 -11 22
-44 22 -22 0 -40 -4 -40 -9 0 -5 -9 -11 -21 -14 -12 -3 -19 -11 -16 -19 2 -7
-3 -21 -11 -31 -14 -16 -14 -20 5 -39 19 -19 25 -20 52 -8 17 7 40 10 51 7 11
-3 23 0 27 6 4 7 9 3 14 -9 4 -11 8 15 8 64 1 45 -1 82 -4 82 -3 0 -6 -26 -6
-57z m-19 -18 c0 -20 -23 -29 -55 -21 -42 11 -31 36 15 36 29 0 40 -4 40 -15z"/>
<path d="M1723 1105 c0 -22 2 -30 4 -17 2 12 2 30 0 40 -3 9 -5 -1 -4 -23z"/>
<path d="M1497 1063 c-13 -12 -7 -43 8 -43 9 0 15 9 15 25 0 24 -10 32 -23 18z"/>
<path d="M1071 841 c-17 -21 -31 -44 -31 -50 0 -5 -19 -16 -42 -22 l-43 -12
30 -9 c34 -10 146 19 125 32 -9 5 -9 9 -1 14 6 4 11 18 11 31 0 13 5 27 10 30
6 4 8 11 5 16 -12 18 -34 8 -64 -30z"/>
<path d="M658 703 c7 -3 16 -2 19 1 4 3 -2 6 -13 5 -11 0 -14 -3 -6 -6z"/>
<path d="M722 670 c-18 -10 -41 -25 -51 -34 -10 -9 -29 -16 -43 -16 -41 0 -56
-9 -79 -47 -20 -32 -21 -36 -6 -45 21 -11 21 -27 0 -50 -15 -17 -15 -18 11
-18 14 0 35 5 45 12 33 20 52 -5 44 -58 -5 -40 -4 -44 21 -54 36 -13 46 -13
46 3 0 8 9 22 21 33 14 12 18 25 14 42 -4 17 2 31 25 53 37 37 38 49 4 49 -22
0 -54 19 -54 33 0 2 16 21 35 42 56 59 36 92 -33 55z m-114 -111 c31 -11 31
-11 13 -31 -26 -27 -55 -20 -59 15 -4 30 1 32 46 16z"/>
<path d="M785 606 c-22 -16 -14 -46 12 -46 10 1 29 7 41 14 l24 13 -26 16
c-30 20 -28 20 -51 3z"/>
<path d="M397 593 c-9 -9 -8 -25 2 -42 7 -11 13 -10 36 5 l27 17 -24 13 c-27
15 -32 16 -41 7z"/>
<path d="M421 516 c-6 -7 -8 -26 -5 -43 4 -18 1 -33 -5 -37 -16 -10 -13 -46 4
-52 8 -4 15 -12 15 -20 0 -8 3 -14 8 -14 11 0 33 80 25 93 -3 6 -6 28 -4 49 2
40 -15 51 -38 24z"/>
<path d="M209 485 c-3 -2 -21 -5 -40 -6 -53 -4 -71 -16 -59 -39 12 -22 -2 -60
-22 -60 -6 0 -1 -11 11 -24 l23 -24 -21 -21 c-27 -27 -27 -38 2 -37 19 1 22
-5 24 -39 4 -87 11 -127 22 -138 8 -8 11 -4 11 17 0 36 24 30 28 -7 2 -19 -1
-27 -12 -27 -9 0 -16 -4 -16 -10 0 -12 27 -13 32 -2 2 5 18 12 36 15 24 5 32
3 32 -7 0 -8 -4 -16 -8 -18 -5 -1 -12 -16 -16 -32 l-7 -30 20 25 21 24 19 -22
c24 -28 31 -29 31 -3 0 11 5 20 10 20 6 0 10 -8 10 -19 0 -17 11 -19 181 -19
l181 -1 -18 26 c-9 15 -22 47 -29 73 l-12 45 -16 -32 c-9 -18 -17 -41 -17 -52
0 -25 -18 -37 -26 -17 -8 21 -24 21 -24 0 0 -10 -7 -14 -22 -12 -25 4 -37 28
-14 28 9 0 16 4 16 9 0 20 -22 22 -46 6 -29 -19 -29 -18 -38 11 -5 18 -1 24
24 32 26 10 30 15 29 49 l0 38 -16 -32 c-18 -37 -34 -44 -26 -13 3 11 -1 27
-8 36 -10 12 -10 17 -1 23 9 5 8 12 -3 27 -14 19 -15 18 -35 -6 -11 -14 -20
-19 -20 -12 0 7 -11 23 -25 35 -22 20 -23 26 -15 67 5 27 5 46 -1 48 -5 2 -9
15 -9 29 0 34 -24 24 -30 -13 -3 -17 -8 -24 -13 -17 -4 6 -4 18 -1 26 3 10 -3
20 -16 27 -11 6 -25 22 -30 36 -8 21 -38 33 -51 19z m120 -227 c-1 -24 -4 -34
-6 -23 -3 11 -10 23 -16 27 -7 4 -7 11 2 22 19 23 21 21 20 -26z m39 -72 c5
-25 -9 -36 -36 -30 -26 7 -30 41 -4 47 26 7 37 2 40 -17z m-196 -18 c-9 -9
-12 -7 -12 12 0 19 3 21 12 12 9 -9 9 -15 0 -24z m78 12 c0 -21 -15 -27 -25
-10 -7 12 2 30 16 30 5 0 9 -9 9 -20z m136 -78 c-3 -2 -17 -1 -31 2 -22 6 -25
9 -14 22 10 13 14 12 30 -2 11 -10 17 -19 15 -22z m34 -33 c0 -5 8 -9 17 -9 9
0 14 -3 10 -6 -3 -4 -22 -3 -42 0 -30 6 -34 10 -25 21 12 14 40 10 40 -6z"/>
<path d="M960 370 c0 -5 4 -10 9 -10 6 0 13 5 16 10 3 6 -1 10 -9 10 -9 0 -16
-4 -16 -10z"/>
<path d="M655 310 c-17 -7 -15 -9 12 -9 21 -1 37 -8 45 -20 9 -15 15 -17 25
-9 20 16 15 28 -11 28 -14 0 -28 5 -31 10 -7 12 -13 12 -40 0z"/>
<path d="M700 225 c-11 -14 -10 -20 9 -38 l21 -22 -6 35 c-9 44 -8 44 -24 25z"/>
<path d="M680 129 c0 -5 5 -7 10 -4 6 3 10 8 10 11 0 2 -4 4 -10 4 -5 0 -10
-5 -10 -11z"/>
</g>
</svg>
